<svg id="Layer_1" data-name="Layer 1" xmlns="http://www.w3.org/2000/svg" viewBox="0 0 312.92 150.72"><defs><style>.cls-1{opacity:0.85;}.cls-2{fill:#c5d6cc;}.cls-3{fill:#9ab8a6;}.cls-4{fill:#6f9a80;}.cls-5{fill:#447c5a;}.cls-6{fill:#195e35;}.cls-7{fill:none;stroke:#666;stroke-miterlimit:10;stroke-width:0.5px;}.cls-10,.cls-8{font-size:12px;}.cls-10,.cls-13,.cls-8{fill:#333;font-family:BentonSansCond-Regular, BentonSans Cond Regular;}.cls-9{letter-spacing:-0.01em;}.cls-10{letter-spacing:-0.01em;}.cls-11{letter-spacing:0em;}.cls-12{letter-spacing:-0.01em;}.cls-13{font-size:14px;}.cls-14{letter-spacing:-0.02em;}.cls-15{letter-spacing:-0.01em;}.cls-16{letter-spacing:-0.01em;}.cls-17{letter-spacing:-0.02em;}.cls-18{letter-spacing:0em;}.cls-19{fill:#d3d3d3;}.cls-20{letter-spacing:0em;}</style></defs><title>eviction_keys</title><g class="cls-1"><rect class="cls-2" y="48" width="60" height="20"/></g><g class="cls-1"><rect class="cls-3" x="60" y="48" width="60" height="20"/></g><g class="cls-1"><rect class="cls-4" x="120" y="48" width="60" height="20"/></g><g class="cls-1"><rect class="cls-5" x="180" y="48" width="60" height="20"/></g><g class="cls-1"><rect class="cls-6" x="240" y="48" width="60" height="20"/></g><line class="cls-7" x1="60.5" y1="48" x2="60.5" y2="86"/><line class="cls-7" x1="120.5" y1="48" x2="120.5" y2="86"/><line class="cls-7" x1="180.5" y1="48" x2="180.5" y2="86"/><line class="cls-7" x1="240.5" y1="48" x2="240.5" y2="86"/><line class="cls-7" x1="300.5" y1="48" x2="300.5" y2="86"/><text class="cls-8" transform="translate(35.98 84.76)">4<tspan class="cls-9" x="6.35" y="0">2</tspan><tspan x="12.31" y="0">0</tspan></text><text class="cls-8" transform="translate(151.98 84.76)">1260</text><text class="cls-10" transform="translate(211.98 84.76)">1<tspan class="cls-11" x="4.49" y="0">680</tspan></text><text class="cls-8" transform="translate(271.98 84.76)">2<tspan class="cls-12" x="6.05" y="0">1</tspan><tspan x="10.5" y="0">00</tspan></text><text class="cls-13" transform="translate(0.48 39.56)">Median G<tspan class="cls-14" x="52.02" y="0">r</tspan><tspan class="cls-15" x="56.53" y="0">o</tspan><tspan class="cls-16" x="63.35" y="0">s</tspan><tspan x="69.31" y="0">s </tspan><tspan class="cls-17" x="78.19" y="0">R</tspan><tspan class="cls-18" x="85.85" y="0">ent ($)</tspan></text><g class="cls-1"><rect class="cls-19" y="100" width="60" height="20"/></g><text class="cls-8" transform="translate(19.48 136.56)">No da<tspan class="cls-20" x="27.6" y="0">t</tspan><tspan x="31.44" y="0">a</tspan></text><text class="cls-8" transform="translate(95.98 84.76)">840</text></svg>