<svg id="Layer_1" data-name="Layer 1" xmlns="http://www.w3.org/2000/svg" viewBox="0 0 310.35 149.75"><defs><style>.cls-1{opacity:0.85;}.cls-2{fill:#d0dfec;}.cls-3{fill:#adc7de;}.cls-4{fill:#8bb0d0;}.cls-5{fill:#6899c3;}.cls-6{fill:#4682b4;}.cls-7{font-size:14px;}.cls-12,.cls-7{fill:#333;font-family:BentonSansCond-Regular, BentonSans Cond Regular;}.cls-8{letter-spacing:-0.01em;}.cls-9{letter-spacing:0em;}.cls-10{letter-spacing:-0.01em;}.cls-11{fill:none;stroke:#666;stroke-miterlimit:10;stroke-width:0.5px;}.cls-12{font-size:12px;}.cls-13{letter-spacing:-0.04em;}.cls-14{letter-spacing:0em;}.cls-15{letter-spacing:-0.02em;}.cls-16{letter-spacing:-0.01em;}.cls-17{letter-spacing:-0.12em;}.cls-18{letter-spacing:0em;}.cls-19{letter-spacing:-0.01em;}.cls-20{letter-spacing:-0.03em;}.cls-21{fill:#d3d3d3;}.cls-22{letter-spacing:0em;}</style></defs><title>Artboard 1</title><g class="cls-1"><rect class="cls-2" y="48" width="60" height="20"/></g><g class="cls-1"><rect class="cls-3" x="60" y="48" width="60" height="20"/></g><g class="cls-1"><rect class="cls-4" x="120" y="48" width="60" height="20"/></g><g class="cls-1"><rect class="cls-5" x="180" y="48" width="60" height="20"/></g><g class="cls-1"><rect class="cls-6" x="240" y="48" width="60" height="20"/></g><text class="cls-7" transform="translate(0.48 39.56)">Median Hou<tspan class="cls-8" x="66.11" y="0">s</tspan><tspan class="cls-9" x="72.11" y="0">ehold In</tspan><tspan class="cls-10" x="116.13" y="0">c</tspan><tspan x="122.43" y="0">ome($)</tspan></text><line class="cls-11" x1="60" y1="48" x2="60" y2="86"/><line class="cls-11" x1="120" y1="48" x2="120" y2="86"/><line class="cls-11" x1="180" y1="48" x2="180" y2="86"/><line class="cls-11" x1="240" y1="48" x2="240" y2="86"/><line class="cls-11" x1="300" y1="48" x2="300" y2="86"/><text class="cls-12" transform="translate(19.48 84.56)">2<tspan class="cls-13" x="6.05" y="0">,</tspan><tspan class="cls-14" x="8.38" y="0">4000</tspan></text><text class="cls-12" transform="translate(79.48 84.56)"><tspan class="cls-15">4</tspan><tspan class="cls-16" x="6.14" y="0">,</tspan><tspan x="8.83" y="0">8000</tspan></text><text class="cls-12" transform="translate(139.48 84.56)"><tspan class="cls-17">7</tspan><tspan class="cls-18" x="4.16" y="0">,</tspan><tspan class="cls-19" x="7.01" y="0">2</tspan><tspan x="12.97" y="0">000</tspan></text><text class="cls-12" transform="translate(199.48 84.56)"><tspan class="cls-20">9,</tspan><tspan x="8.39" y="0">6000</tspan></text><text class="cls-12" transform="translate(254.48 84.56)">1<tspan class="cls-19" x="4.57" y="0">2</tspan><tspan class="cls-20" x="10.54" y="0">0,</tspan><tspan x="19.37" y="0">000</tspan></text><g class="cls-1"><rect class="cls-21" y="100" width="60" height="20"/></g><text class="cls-12" transform="translate(17.48 136.56)">No da<tspan class="cls-22" x="27.6" y="0">t</tspan><tspan x="31.44" y="0">a</tspan></text></svg>